# xmcd
#
# Track frame offsets:
#	150
#	19737
#	41762
#	63125
#	83000
#	100587
#	114337
#	135175
#	158925
#	174462
#
# Disc length: 2639 seconds
#
# Revision: 1
# Processed by: cddbd v1.5.2PL0 Copyright (c) Steve Scherf et al.
# Submitted via: EZCDAudioConverter 7.1.5.1
#
DISCID=6c0a4d0a
DTITLE=草蜢 - 宝贝，对不起
DYEAR=1993
DGENRE=
TTITLE0=宝贝对不起
TTITLE1=一起手牵手
TTITLE2=爱不怕让你知道
TTITLE3=La La Means I Love You
TTITLE4=妒忌
TTITLE5=Gala Gala Happy
TTITLE6=再见rainy Days
TTITLE7=难以相信
TTITLE8=多情少年
TTITLE9=夜性感
EXTD=
EXTT0=
EXTT1=
EXTT2=
EXTT3=
EXTT4=
EXTT5=
EXTT6=
EXTT7=
EXTT8=
EXTT9=
PLAYORDER=
